inDegrees=yes
name=ik_lifting_orientations
DataType=double
version=3
OpenSimVersion=4.5-2024-01-10-34fd6af
endheader
time	pelvis_tilt	pelvis_list	pelvis_rotation	pelvis_tx	pelvis_ty	pelvis_tz	hip_flexion_r	hip_adduction_r	hip_rotation_r	knee_angle_r	knee_angle_r_beta	ankle_angle_r	subtalar_angle_r	mtp_angle_r	hip_flexion_l	hip_adduction_l	hip_rotation_l	knee_angle_l	knee_angle_l_beta	ankle_angle_l	subtalar_angle_l	mtp_angle_l	lumbar_extension	lumbar_bending	lumbar_rotation	arm_flex_r	arm_add_r	arm_rot_r	elbow_flex_r	pro_sup_r	wrist_flex_r	wrist_dev_r	arm_flex_l	arm_add_l	arm_rot_l	elbow_flex_l	pro_sup_l	wrist_flex_l	wrist_dev_l
0.65	0.7668191669275429	17.68107068676132	-89.27110887321527	0	0.9399999998679526	0	43.19750910258414	-12.07918031589785	0	57.72460556965721	1.007484426605575	-5.978644381603489	0	0	43.19750910258414	-12.07918031589785	0	57.72460556965721	1.007484426605575	-5.978644381603489	0	0	12.50123269949464	-4.811200084693686	-11.72144119672211	5.562758316172291	2.259724565474643	18.9918466674199	0.02126298491428597	6.653669043752119	0	0	0	-8.567836523991632	0	83.42087838986086	6.653669043752119	0	0
0.66	0.1102568195473396	19.28826177964996	-87.89523624821224	0	0.9399999998679526	0	43.19831363062723	-12.07593083087188	0	57.72540329786899	1.007498349589407	-5.976653126995043	0	0	43.19831363062723	-12.07593083087188	0	57.72540329786899	1.007498349589407	-5.976653126995043	0	0	12.25002911395884	-4.616275807957814	-12.65366874065148	7.172144468407577	2.932957325864467	18.82473834457469	0.02094878953711552	6.651592910198731	0	0	0	-8.569310751370901	0	83.42293096534482	6.651592910198731	0	0
0.67	-0.677691106576684	21.06092324571992	-86.33399699722027	0	0.9399999998679526	0	43.19892027147834	-12.07348885928139	0	57.72600597165451	1.00750886823128	-5.975158024412917	0	0	43.19892027147834	-12.07348885928139	0	57.72600597165451	1.00750886823128	-5.975158024412917	0	0	11.88549728812519	-4.466017710343223	-13.89889554725517	9.000850419845897	3.790708159860655	18.61850499420498	0.02092529049830938	6.650026162694865	0	0	0	-8.570424038071515	0	83.42447993571781	6.650026162694865	0	0
0.68	-0.6279975152289784	22.6843514926232	-86.16481624533684	0	0.9399999998679526	0	43.23730993366673	-11.93486561591983	0	57.76654564967308	1.008216419090402	-5.893008807131203	0	0	43.23730993366673	-11.93486561591983	0	57.76654564967308	1.008216419090402	-5.893008807131203	0	0	10.88837943148476	-4.874700936194405	-14.15248452497938	11.27055099768337	4.771892604533078	18.61064269162847	0.02106309217637372	6.548577557113	0	0	0	-8.643886668850984	0	83.52477902091849	6.548577557113	0	0
0.6899999999999999	-0.3703902691495843	24.30789111972003	-86.31429160843807	0	0.9399999998679526	0	43.27408442326462	-11.80827573474873	0	57.80558458382326	1.008897777027792	-5.819380976576915	0	0	43.27408442326462	-11.80827573474873	0	57.80558458382326	1.008897777027792	-5.819380976576915	0	0	9.894443360372026	-5.428000776292764	-14.1558999453948	13.55787017872401	5.76703149280681	18.51374861088874	0.02103496033196623	6.450800630002944	0	0	0	-8.714978449505093	0	83.62144848617386	6.450800630002944	0	0
0.7	-0.1565328254486626	25.67141319403822	-86.34191206290717	0	0.9399999998679526	0	43.27462307887126	-11.80630286305517	0	57.80612303403878	1.008907174756911	-5.818216800915637	0	0	43.27462307887126	-11.80630286305517	0	57.80612303403878	1.008907174756911	-5.818216800915637	0	0	10.05012571965928	-5.768103620118789	-14.35768348058956	14.49511511125765	6.293069019101193	18.70546971534542	0.02101769913433072	6.449393081444812	0	0	0	-8.71598625450989	0	83.62284007805933	6.449393081444812	0	0
0.71	0.06690970836771536	26.98324779575538	-86.37162906166405	0	0.9399999998679526	0	43.27515438753611	-11.80435811327637	0	57.80665406141959	1.008916442933124	-5.817069589523957	0	0	43.27515438753611	-11.80435811327637	0	57.80665406141959	1.008916442933124	-5.817069589523957	0	0	9.284667500382209	-6.05791477647795	-14.97236270798693	16.25020891685912	7.165054603620343	19.18675123276127	0.02081071961825295	6.448004707399213	0	0	0	-8.716980317116203	0	83.62421271283641	6.448004707399213	0	0
0.72	0.4043360283421372	28.14061224177038	-86.54452647637358	0	0.9399999998679526	0	43.27571075317391	-11.80232198739591	0	57.80720989136327	1.008926143995723	-5.815868730142626	0	0	43.27571075317391	-11.80232198739591	0	57.80720989136327	1.008926143995723	-5.815868730142626	0	0	8.367785973523537	-6.403398396576384	-15.50672035838974	17.99377924980943	8.001094728034584	19.63325124247897	0.02073259058712607	6.446550995712502	0	0	0	-8.718021049102116	0	83.62564994448979	6.446550995712502	0	0
0.73	0.6961438124958612	29.33627917478118	-86.90217209613402	0	0.9399999998679526	0	43.31131804858707	-11.68217864212818	0	57.84463252483186	1.009579292164517	-5.746973930406553	0	0	43.31131804858707	-11.68217864212818	0	57.84463252483186	1.009579292164517	-5.746973930406553	0	0	7.275116429609516	-6.594727969527856	-16.07245544842118	19.89825964624595	8.865328005306063	20.14871418073308	0.02050028892973666	6.352066783893006	0	0	0	-8.786524914350785	0	83.71906390482121	6.352066783893006	0	0
0.74	0.9585244618102871	30.37712985780094	-87.24340419050195	0	0.9399999998679526	0	43.34554542087919	-11.57136724751721	0	57.88063915302138	1.010207726378965	-5.684545258267477	0	0	43.34554542087919	-11.57136724751721	0	57.88063915302138	1.010207726378965	-5.684545258267477	0	0	5.989026732753449	-6.693958915966327	-16.68123505027851	21.86867411147343	9.73763706307826	20.61147507158055	0.02019632113328249	6.260865707886701	0	0	0	-8.852804728806197	0	83.80923221877713	6.260865707886701	0	0
0.75	1.204696056713502	31.43786754394527	-87.55766214913035	0	0.9399999998679526	0	43.37869865404596	-11.46895595000883	0	57.91558977869375	1.01081772987258	-5.62793713740111	0	0	43.37869865404596	-11.46895595000883	0	57.91558977869375	1.01081772987258	-5.62793713740111	0	0	4.772531268052461	-6.726357120620583	-17.51148411073627	23.7094207849829	10.6404354216616	21.27003570902324	0.01997541349555044	6.172047457471574	0	0	0	-8.917567633070659	0	83.89704504965836	6.172047457471574	0	0
0.76	1.577133634910847	32.34871609928945	-87.86543848230261	0	0.9399999998679526	0	43.40831018124606	-11.38149668252592	0	57.9469234861837	1.011364606235136	-5.580477182512229	0	0	43.40831018124606	-11.38149668252592	0	57.9469234861837	1.011364606235136	-5.580477182512229	0	0	3.353618660369458	-6.815672886125424	-18.3209627849115	25.58677315884753	11.51099461536491	21.96586811114913	0.01986416894766572	6.092308113853489	0	0	0	-8.975896202850077	0	83.97588203580965	6.092308113853489	0	0
0.77	1.788106490070564	33.21350921203267	-88.05466445809216	0	0.9399999998679526	0	43.43863168089936	-11.29497313464001	0	57.97888120579344	1.011922373663755	-5.534254906737446	0	0	43.43863168089936	-11.29497313464001	0	57.97888120579344	1.011922373663755	-5.534254906737446	0	0	2.007550799527259	-6.665042435502985	-19.38353691441188	27.31380229407599	12.34781524122862	22.66257074360131	0.01974538689704194	6.010447839147875	0	0	0	-9.03583415936942	0	84.05681613371506	6.010447839147875	0	0
0.78	2.081575615927513	33.80678329170217	-88.31130412409124	0	0.9399999998679526	0	43.46716925518913	-11.21658192695982	0	58.00892040661394	1.012446656622741	-5.493070421021974	0	0	43.46716925518913	-11.21658192695982	0	58.00892040661394	1.012446656622741	-5.493070421021974	0	0	0.3436962393376528	-6.436439345655288	-20.48967319842072	29.06245527185393	13.24242963970382	23.50574811126386	0.01964480667979601	5.933136960848862	0	0	0	-9.092539304198837	0	84.13325251413158	5.933136960848862	0	0
0.79	2.391866891230608	34.37134157728372	-88.34909211002513	0	0.9399999998679526	0	43.49679055945681	-11.13917744023831	0	58.04022796625632	1.012993076619265	-5.453175378086249	0	0	43.49679055945681	-11.13917744023831	0	58.04022796625632	1.012993076619265	-5.453175378086249	0	0	-1.53732160661516	-6.682294252839433	-20.82772828775153	31.13493373690558	13.92392967508593	23.21425769673645	0.01966000600770203	5.852353461667001	0	0	0	-9.152052544597815	0	84.21312258384326	5.852353461667001	0	0
0.8	2.57376477141458	33.0258243695545	-88.35547116214241	0	0.9399999998679526	0	43.53197073558115	-11.04514369016365	0	58.07670054837961	1.01362964326402	-5.405117115896798	0	0	43.53197073558115	-11.04514369016365	0	58.07670054837961	1.01362964326402	-5.405117115896798	0	0	-5.334096027288268	-6.744211761162608	-21.14159695150349	33.21946346238887	14.60644996956375	22.88451886726614	0.01966020426827414	5.757866141369957	0	0	0	-9.22069467997229	0	84.30654075172819	5.757866141369957	0	0
0.8100000000000001	2.721308942756284	32.76978696451692	-88.55166891844395	0	0.9399999998679526	0	43.53249162682777	-11.04384435209087	0	58.07723539033552	1.013638978017129	-5.404460220533495	0	0	43.53249162682777	-11.04384435209087	0	58.07723539033552	1.013638978017129	-5.404460220533495	0	0	-7.778877513502505	-6.944869990339333	-20.99368111024924	35.15953630399893	15.19137898051157	22.34706311075872	0.01987022812938269	5.756440667129565	0	0	0	-9.221745607278908	0	84.30795011353776	5.756440667129565	0	0
0.82	2.361451790415642	32.925242242007	-88.53553903603475	0	0.9399999998679526	0	43.53297960259873	-11.04262964651208	0	58.07773697333	1.013647732291855	-5.403846475698589	0	0	43.53297960259873	-11.04262964651208	0	58.07773697333	1.013647732291855	-5.403846475698589	0	0	-9.605271557729369	-6.657823928258943	-20.68791541003909	37.11897676088345	15.55849619249763	21.82943045422835	0.01958842234334047	5.755104629443256	0	0	0	-9.222730989012168	0	84.30927105005166	5.755104629443256	0	0
0.83	2.293911510463458	33.21302961215563	-88.5298899077369	0	0.9399999998679526	0	43.53350022135575	-11.04133331906375	0	58.07827167567508	1.013657064608295	-5.403191579754153	0	0	43.53350022135575	-11.04133331906375	0	58.07827167567508	1.013657064608295	-5.403191579754153	0	0	-11.13743048587318	-6.629023438515639	-20.6718398813243	38.67742194821273	15.96747299123911	21.43708441164238	0.01980207298911668	5.753679552136767	0	0	0	-9.223781801314551	0	84.31068001962861	5.753679552136767	0	0
0.84	2.224279027867005	33.49514976941278	-88.53227389997595	0	0.9399999998679526	0	43.53403967303844	-11.03999140856285	0	58.07882579044085	1.013666735735391	-5.402513926549442	0	0	43.53403967303844	-11.03999140856285	0	58.07882579044085	1.013666735735391	-5.402513926549442	0	0	-12.81434208896468	-6.683888282005515	-20.88690397201048	40.34548153525218	16.65098345970236	21.08323708501879	0.02024169599303857	5.752202737552548	0	0	0	-9.224870854423537	0	84.31214014180692	5.752202737552548	0	0
